<svg xmlns="http://www.w3.org/2000/svg" viewBox="0 0 3672.75 991.24"><defs><style>.cls-1{fill:#1b1a1f;}.cls-2{fill:#78767b;}.cls-3{fill:#4ca9ee;}.cls-4{fill:#fff;}</style></defs><g id="Layer_2" data-name="Layer 2"><g id="Layer_1-2" data-name="Layer 1"><g id="final_logo_tagline" data-name="final logo tagline"><g id="final_logo" data-name="final logo"><path class="cls-1" d="M1383,392.07H1238.43V542.5H1142V31.35c80.32,0,160.64-.73,241-.73C1632.74,30.62,1633.47,392.07,1383,392.07Zm-144.58-88.35H1383c123.4,0,122.67-181.09,0-181.09H1238.43Z"/><path class="cls-1" d="M1912.41,182.5h85.43v360h-84l-4.38-52.58c-20.45,42.35-76.67,62.8-116.83,63.53-106.61.73-185.48-65-185.48-191.32,0-124.13,82.52-189.12,187.67-188.39,48.19,0,94.19,22.64,114.64,58.42ZM1696.27,362.13c0,68.64,47.46,109.54,106.61,109.54,140.2,0,140.2-218.34,0-218.34C1743.73,253.33,1696.27,293.49,1696.27,362.13Z"/><path class="cls-1" d="M2196.46,81V183.23h99.31v76.68h-100V415.44c0,34.32,19,51.11,46.73,51.11,13.88,0,29.94-4.38,43.09-10.95l24.82,75.94c-25.55,10.23-46.73,14.61-73.75,15.34-78.13,2.92-129.25-41.62-129.25-131.44V259.91H2040.2V183.23h67.17V90.5Z"/><path class="cls-1" d="M2472.47,81c0,69.37-105.15,69.37-105.15,0S2472.47,11.63,2472.47,81Zm-97.12,100V542.5h89.09V181Z"/><path class="cls-1" d="M2633.84,394.26c5.85,44.55,44.55,76.68,107.34,76.68,32.86,0,76-12.42,96.39-33.59l57,56.22c-38,39.43-100,58.42-154.81,58.42-124.13,0-197.88-76.67-197.88-192,0-109.53,74.48-188.39,191.31-188.39,120.49,0,195.7,74.48,181.82,222.71Zm195.7-73.75c-5.84-46.73-42.35-70.1-93.47-70.1-48.19,0-87.62,23.37-100.77,70.1Z"/><path class="cls-1" d="M3261.82,542.5V354.1c0-54.76-29.94-96.39-86.9-96.39-54.76,0-92,46-92,100.77v184h-88.36V181.77h79.6L3080,230.7c36.51-35.78,73-54,118.29-54,84.71,0,152.62,63.53,152.62,176.71V542.5Z"/><path class="cls-1" d="M3551,81V183.23h99.31v76.68h-100V415.44c0,34.32,19,51.11,46.74,51.11,13.87,0,29.94-4.38,43.08-10.95l24.83,75.94c-25.56,10.23-46.74,14.61-73.75,15.34C3513,549.8,3461.9,505.26,3461.9,415.44V259.91h-67.18V183.23h67.18V90.5Z"/><path class="cls-2" d="M1232.39,983.51a122.36,122.36,0,0,1-39.62-6.45,99.9,99.9,0,0,1-33.17-18.56,68.14,68.14,0,0,1-20.26-28.78l35-13.09q3,8.61,11.74,15.33a65.27,65.27,0,0,0,20.8,10.49,85.51,85.51,0,0,0,25.55,3.77,77.27,77.27,0,0,0,27-4.66q12.64-4.66,20.44-12.91a27.27,27.27,0,0,0,7.8-19.37,24.2,24.2,0,0,0-8.16-18.82,59.13,59.13,0,0,0-20.79-11.66,157.29,157.29,0,0,0-26.27-6.45,229.13,229.13,0,0,1-47.24-12.55q-20.89-8.25-33-23.13t-12.11-38.73q0-22.41,12.82-39.08T1186.76,733a112.3,112.3,0,0,1,45.63-9.23,122.05,122.05,0,0,1,39.17,6.36,101.82,101.82,0,0,1,33.35,18.47,68.23,68.23,0,0,1,20.71,29.31l-35.32,12.73q-3-8.77-11.65-15.33A66.6,66.6,0,0,0,1257.94,765a85.56,85.56,0,0,0-25.55-3.76,71.93,71.93,0,0,0-26.8,4.57,54.54,54.54,0,0,0-20.36,13,26.88,26.88,0,0,0-7.88,19.18q0,13.45,7.35,20.44t19.81,10.31q12.46,3.31,27.88,6a189.5,189.5,0,0,1,45.81,13.09q21.06,9.13,33.89,24.29t12.81,37.2q0,22.25-12.81,39t-33.89,26A113,113,0,0,1,1232.39,983.51Z"/><path class="cls-2" d="M1817.24,985.3l-28.68-28.5a116.85,116.85,0,0,1-33.71,19,118.39,118.39,0,0,1-87.49-3.32,125.36,125.36,0,0,1-39.45-28,130.12,130.12,0,0,1-26.62-41.5,137.7,137.7,0,0,1,0-101,131.5,131.5,0,0,1,26.62-41.51,125,125,0,0,1,39.45-28.06,118.81,118.81,0,0,1,96,0,125.37,125.37,0,0,1,39.35,28.06,132.39,132.39,0,0,1,36.22,92,130.13,130.13,0,0,1-6.55,41.5,138,138,0,0,1-18,35.95L1843.6,959Zm-101.83-40a75.54,75.54,0,0,0,46.07-15.78l-27.79-27.61,26.36-26.53,26.54,26.71a80.42,80.42,0,0,0,11.29-23.49,91.76,91.76,0,0,0,3.77-26.17,95.38,95.38,0,0,0-25.37-65.53,88,88,0,0,0-27.53-20.08,80.12,80.12,0,0,0-66.87.08,89.25,89.25,0,0,0-27.52,20.18A95.25,95.25,0,0,0,1629,852.45a96.42,96.42,0,0,0,6.72,36,93.79,93.79,0,0,0,18.74,29.67,87.65,87.65,0,0,0,27.61,20A78.88,78.88,0,0,0,1715.41,945.32Z"/><path class="cls-2" d="M2213.66,983.51q-30.12,0-52.44-14.7a98.7,98.7,0,0,1-34.6-39.54q-12.28-24.82-12.28-55.13V727.84h37.29v146.3a88.3,88.3,0,0,0,7.26,36.13,61.84,61.84,0,0,0,21.16,26.18q13.89,9.76,33.61,9.77,20.27,0,34.07-9.77a61,61,0,0,0,20.89-26.18,90.24,90.24,0,0,0,7.08-36.13V727.84H2313v146.3a127,127,0,0,1-7,42.58,106.8,106.8,0,0,1-20.08,34.88,92.16,92.16,0,0,1-31.38,23.48Q2236.26,983.51,2213.66,983.51Z"/><path class="cls-2" d="M2665.3,727.84h43.57l91.26,251h-39.44l-17.39-47.69H2630.88l-17.21,47.69h-39.62Zm-20.61,166h84.8L2687,777.32Z"/><path class="cls-2" d="M3068.71,978.85v-251h92.34a68.76,68.76,0,0,1,36.76,10,73.85,73.85,0,0,1,25.9,27,75.23,75.23,0,0,1,9.6,37.74,77.28,77.28,0,0,1-6.55,32.1,71.46,71.46,0,0,1-45.09,39.44l60.6,104.71h-43.21l-58.81-101.3H3106v101.3ZM3106,840.26h51.1a37.21,37.21,0,0,0,19.63-5.38,41.25,41.25,0,0,0,14.07-55,39.1,39.1,0,0,0-14.07-14.34,37.69,37.69,0,0,0-19.63-5.29H3106Z"/><path class="cls-2" d="M3517,978.85v-251h155.8v37.29H3554.24v60.6h95.39V863h-95.39v78.53h118.51v37.29Z"/></g><path class="cls-3" d="M947.09,991.24h-492C203.74,991.24,0,787.5,0,536.17v-492A44.15,44.15,0,0,1,44.15,0h492C787.5,0,991.24,203.74,991.24,455.07v492A44.15,44.15,0,0,1,947.09,991.24Z"/><path class="cls-4" d="M584.7,233.38c-90.34,0-180.69.8-271,.8v127.5H422.11V335.2H584.7c135.32,0,138.68,192.88,7.79,200.25v97.86C866.31,626,863,233.38,584.7,233.38Z"/><path class="cls-4" d="M422.11,535.69V412.93H313.72V757.86H422.11V633.45H540.52V535.69Z"/><path class="cls-4" d="M194.72,535.69v97.76H313.13V757.86H421.52V412.93H313.13V535.69Z"/></g></g></g></svg>